<svg xmlns="http://www.w3.org/2000/svg" viewBox="0 0 27 27" height="27" width="27"><title>skateboard.svg</title><rect fill="none" x="0" y="0" width="27" height="27"></rect><rect x="1" y="1" rx="12.5" ry="12.5" width="25" height="25" stroke="#ffffff" style="stroke-linejoin:round;stroke-miterlimit:4;" fill="#ffffff" stroke-width="2"></rect><rect x="1" y="1" width="25" height="25" rx="12.5" ry="12.5" fill="#32cd32"></rect><path fill="#ffffff" transform="translate(6 6)" d="M11,8H4A2.0024,2.0024,0,0,1,2,6H3A1.001,1.001,0,0,0,4,7h7a1.001,1.001,0,0,0,1-1h1A2.0024,2.0024,0,0,1,11,8Zm0,1a1,1,0,1,0,1,1A1,1,0,0,0,11,9ZM4,9a1,1,0,1,0,1,1A1,1,0,0,0,4,9Z"></path></svg>